<svg version="1.1" id="Layer_1" xmlns="http://www.w3.org/2000/svg" xmlns:xlink="http://www.w3.org/1999/xlink" x="0px" y="0px"
	 width="100%" viewBox="0 0 496 496" enable-background="new 0 0 496 496" xml:space="preserve">
<path fill="#000000" opacity="1.000000" stroke="none" 
	d="
M282.752319,276.758362 
	C292.564575,276.529694 297.107025,279.732239 297.329102,286.838409 
	C297.516876,292.847412 293.877258,297.108215 288.020020,297.736359 
	C282.622437,298.315216 277.168671,294.315369 276.947449,288.576508 
	C276.778412,284.190857 275.019989,281.638367 271.715759,279.176910 
	C267.803802,276.262756 265.838135,272.022644 265.795898,267.038971 
	C265.770508,264.039764 265.790100,261.040192 265.779663,258.040833 
	C265.756470,251.370773 265.738861,251.655350 259.215271,251.309341 
	C254.258194,251.046417 252.849625,253.036270 252.976639,257.684998 
	C253.231415,267.009857 253.113815,276.346130 253.065247,285.677246 
	C253.050797,288.453461 253.602158,290.618774 255.879425,292.694092 
	C260.531433,296.933563 260.479645,303.617279 256.271698,307.833801 
	C252.102478,312.011444 245.734543,311.989624 241.481873,307.783081 
	C237.300308,303.646851 237.390701,296.901215 242.017319,292.647552 
	C243.902802,290.914062 244.847824,289.226654 244.825623,286.666779 
	C244.737518,276.502991 244.597961,266.332062 244.893524,256.175842 
	C245.036194,251.273087 242.273590,251.240097 238.839020,251.387482 
	C235.621918,251.525543 231.726059,250.446243 232.113800,255.962784 
	C232.288620,258.449707 231.982574,260.970856 232.163467,263.456909 
	C232.705948,270.911774 230.079758,276.815247 223.877747,281.054077 
	C221.813614,282.464874 220.964813,284.119843 220.995682,286.861145 
	C221.070526,293.506378 216.100418,298.042084 209.898193,297.630951 
	C203.959061,297.237213 200.311981,292.783295 200.638535,286.322815 
	C200.945114,280.256836 205.680130,276.383484 212.271790,276.806610 
	C218.102127,277.180847 223.569244,272.326447 223.848145,266.455627 
	C223.950836,264.293976 223.785645,262.118652 223.908966,259.959076 
	C224.173157,255.333145 224.466187,250.890472 217.919235,250.369171 
	C216.702438,250.272293 215.185547,248.849655 214.528091,247.645325 
	C210.094254,239.523270 202.587082,244.588776 196.586639,243.415024 
	C192.224136,242.561661 190.301407,246.426285 188.062836,249.267212 
	C186.778412,250.897247 186.379456,252.609589 186.743912,254.831177 
	C187.731827,260.853180 183.607498,266.089508 177.607315,266.933350 
	C172.310944,267.678223 166.797943,263.139801 166.079193,257.443237 
	C165.390839,251.987503 169.675507,246.131592 175.485489,246.002625 
	C179.763687,245.907654 182.190826,244.180939 184.451385,241.011002 
	C187.478546,236.766129 191.887558,235.031448 197.024033,235.010696 
	C199.856766,234.999237 202.714539,234.747589 205.516632,235.035858 
	C210.298706,235.527847 212.041153,233.720001 211.805115,228.856583 
	C211.485199,222.265045 211.763321,222.236954 205.117203,222.229019 
	C195.952377,222.218079 186.786942,222.290741 177.623062,222.198227 
	C174.961670,222.171341 172.994736,222.896225 171.033112,224.874939 
	C166.199982,229.750076 160.211411,229.838486 155.961212,225.512650 
	C151.926819,221.406464 151.883255,214.550858 155.866745,210.642639 
	C160.058594,206.529922 166.603180,206.609482 171.015503,211.233856 
	C172.966949,213.279099 174.990616,213.909851 177.622162,213.893539 
	C187.286469,213.833603 196.961960,213.614349 206.612167,213.992783 
	C212.255066,214.214066 211.611984,210.827637 211.768921,207.234634 
	C211.937881,203.366455 211.443527,200.588486 206.526962,201.118973 
	C204.056091,201.385574 201.528488,201.071854 199.034332,201.187851 
	C192.373230,201.497681 186.902161,199.309525 183.146271,193.639633 
	C181.518188,191.181870 179.497711,190.276917 176.497482,190.202301 
	C170.168091,190.044922 165.493179,184.882629 166.042831,179.240997 
	C166.657166,172.935455 171.411591,169.074051 177.758743,169.725647 
	C183.675385,170.333038 187.379242,175.333435 186.735596,181.844818 
	C186.306656,186.183823 191.190506,192.247696 195.658188,192.775482 
	C197.470062,192.989517 199.319122,192.972427 201.148651,192.934570 
	C204.136581,192.872772 207.395691,193.416229 210.036224,192.397507 
	C212.983185,191.260559 211.710632,187.385742 212.795303,184.870880 
	C214.123123,181.792358 216.086639,179.332596 219.411057,178.594376 
	C223.123260,177.770050 224.127106,175.524124 223.906342,172.068771 
	C223.726089,169.247589 223.942078,166.403503 223.857361,163.573303 
	C223.663437,157.094101 218.315231,152.395416 211.716675,152.829590 
	C205.895752,153.212585 201.015045,149.212189 200.160507,143.357788 
	C199.432358,138.369064 203.329529,133.142776 208.617111,132.017105 
	C213.897064,130.893036 219.803711,134.274963 220.442520,140.000259 
	C221.037903,145.336456 223.460464,148.668976 227.467758,151.717789 
	C231.198959,154.556564 231.776810,159.056091 232.103363,163.426910 
	C232.264343,165.581619 232.146027,167.757248 232.152466,169.923416 
	C232.176636,178.060333 232.806686,178.534210 241.121384,177.725143 
	C243.600769,177.483902 244.752945,176.473160 244.764297,174.015564 
	C244.775055,171.683853 244.746933,169.341370 244.959976,167.024246 
	C245.160156,164.847229 246.310608,163.159134 248.644989,162.942963 
	C251.129807,162.712845 252.296295,164.422516 252.610504,166.568954 
	C252.970474,169.028000 252.976913,171.537094 253.185013,174.020416 
	C253.650528,179.575226 257.975159,177.269379 260.863953,177.658905 
	C263.562286,178.022751 265.962372,177.614441 265.766907,173.894470 
	C265.653473,171.734940 265.991608,169.537460 265.742554,167.401825 
	C264.782043,159.164215 267.515137,152.674103 274.512848,148.105789 
	C276.243195,146.976151 276.649384,145.433136 276.745667,143.438782 
	C277.101105,136.079529 281.571289,131.407471 287.609375,131.813980 
	C293.761414,132.228165 297.729279,136.969666 297.325928,143.424942 
	C296.943756,149.540543 292.249969,153.018967 284.979858,152.574203 
	C280.299164,152.287857 274.490784,157.032043 274.213135,161.700684 
	C273.966278,165.851395 274.200165,170.028732 274.133484,174.192917 
	C274.098602,176.369247 275.054047,177.520309 277.146851,178.093048 
	C282.398956,179.530365 285.338287,182.967606 285.627441,188.488129 
	C285.800781,191.796967 287.430420,193.210129 290.786560,192.966034 
	C293.438293,192.773163 296.116180,192.964096 298.781982,192.936569 
	C306.838776,192.853348 311.133911,188.308670 310.762329,180.291016 
	C310.503540,174.707916 315.233154,169.441620 320.775604,169.141434 
	C326.141876,168.850784 330.990021,173.115707 331.726990,178.775375 
	C332.415955,184.066254 328.274414,189.902344 322.808289,190.032181 
	C318.422974,190.136353 315.783386,191.801468 313.405243,195.203766 
	C310.549561,199.289291 306.197968,200.978104 301.288910,201.154785 
	C298.625977,201.250595 295.957306,201.186356 293.291229,201.194168 
	C286.382050,201.214417 283.753540,205.149628 286.159119,211.694702 
	C286.822327,213.499054 288.146881,213.785675 289.695465,213.788422 
	C300.526093,213.807602 311.356934,213.775757 322.187439,213.818954 
	C324.300354,213.827377 325.418579,212.465057 326.745087,211.173676 
	C331.571472,206.475113 337.889465,206.478012 342.198334,211.082825 
	C346.211884,215.372040 345.957733,221.806046 341.614441,225.865173 
	C337.157013,230.030975 331.188751,229.714523 326.559479,224.755829 
	C324.921173,223.000961 323.265106,222.212997 320.932098,222.225708 
	C310.934418,222.280182 300.929871,222.454285 290.940704,222.155228 
	C285.250702,221.984894 286.089203,225.667496 285.892670,229.118912 
	C285.681976,232.819672 286.446838,235.358353 290.989380,235.032135 
	C294.139038,234.805939 297.318665,235.024506 300.484192,234.986298 
	C306.227478,234.916977 310.951721,237.030518 314.195099,241.795670 
	C316.026398,244.486160 318.008240,245.827789 321.502533,245.884277 
	C327.677063,245.984116 332.367188,251.396088 331.906952,257.031921 
	C331.463928,262.457153 325.780518,267.447327 320.626953,266.936066 
	C314.812775,266.359314 310.533386,261.111603 310.902008,255.010666 
	C311.284882,248.674072 306.606934,243.479950 300.343658,243.337173 
	C297.845398,243.280228 295.330658,243.488922 292.848572,243.279221 
	C288.628387,242.922699 285.033051,243.347107 282.907959,247.820389 
	C282.279907,249.142441 280.453705,250.585648 279.052368,250.725082 
	C274.159729,251.211929 273.744232,254.233307 274.078613,258.063721 
	C274.222961,259.717438 274.304230,261.423492 274.067688,263.055511 
	C273.071777,269.926453 276.297974,274.140198 282.752319,276.758362 
M223.231766,243.562851 
	C239.551132,243.596588 255.871063,243.567184 272.189514,243.708008 
	C276.318329,243.743652 277.764862,241.980927 277.735687,237.986694 
	C277.622589,222.499619 277.609894,207.010559 277.744720,191.523834 
	C277.777771,187.724197 276.550354,186.116074 272.589233,186.148895 
	C256.769379,186.279968 240.947311,186.272369 225.127197,186.157364 
	C221.365417,186.130035 220.196716,187.768616 220.215668,191.280914 
	C220.301071,207.101242 220.252609,222.922302 220.259323,238.743088 
	C220.260117,240.602432 220.263962,242.480072 223.231766,243.562851 
M319.544952,255.858612 
	C319.313477,257.712463 320.137909,258.725311 321.980896,258.361267 
	C323.223083,258.115906 323.910248,256.976532 323.324280,255.771774 
	C322.508484,254.094513 321.210327,253.994217 319.544952,255.858612 
M178.098206,255.330215 
	C176.667526,253.990265 175.386093,254.097885 174.609528,255.932327 
	C174.167267,256.977051 174.773514,258.021515 175.813019,258.297333 
	C177.764450,258.815063 178.556931,257.775513 178.098206,255.330215 
M178.456985,180.209503 
	C178.668381,178.317505 177.732117,177.375488 175.942520,177.709183 
	C174.673111,177.945862 174.041977,179.113037 174.632965,180.320953 
	C175.478607,182.049301 176.796143,181.995392 178.456985,180.209503 
M212.492035,141.828323 
	C211.593155,140.195160 210.356094,139.855743 209.044876,141.220657 
	C208.108109,142.195786 208.334503,143.414001 209.494415,144.072556 
	C211.189880,145.035217 212.207413,144.268097 212.492035,141.828323 
M249.729233,298.604828 
	C247.648529,298.140442 246.535126,298.989380 246.868546,301.090271 
	C247.022949,302.063171 248.128433,302.721161 249.130600,302.426910 
	C251.054733,301.862000 251.842987,300.715302 249.729233,298.604828 
M335.681763,216.530518 
	C334.032562,215.982178 332.662140,216.150467 332.526154,218.215347 
	C332.454346,219.305801 333.315308,220.171570 334.382416,220.058487 
	C336.192230,219.866730 336.921783,218.768555 335.681763,216.530518 
M165.259338,217.625107 
	C164.273087,216.036636 162.992401,215.643234 161.716675,217.131042 
	C161.064041,217.892166 161.101059,219.148819 162.057785,219.767273 
	C163.795761,220.890701 164.767487,219.903534 165.259338,217.625107 
z"/>
<path fill="#000000" opacity="1.000000" stroke="none" 
	d="
M253.158646,141.510651 
	C253.022034,143.573425 253.075714,145.259735 252.769272,146.877823 
	C252.374542,148.961960 251.310776,150.762177 248.873810,150.686661 
	C246.513702,150.613525 245.045776,148.877686 245.096497,146.776855 
	C245.210907,142.037643 243.565338,138.486221 240.369629,134.877457 
	C236.800812,130.847366 238.224091,124.315956 242.341400,121.040489 
	C246.528488,117.709511 252.759338,118.059143 256.473145,121.833450 
	C260.132477,125.552414 260.277893,131.725601 256.828979,135.951508 
	C255.497498,137.582901 253.307404,138.614182 253.158646,141.510651 
z"/>
<path fill="#000000" opacity="1.000000" stroke="none" 
	d="
M383.002441,335.095367 
	C384.086548,332.063568 384.798584,329.282990 386.047943,326.769531 
	C387.480133,323.888123 390.401276,323.947479 391.536591,326.960205 
	C394.041992,333.608490 396.174713,340.397247 398.415741,346.999786 
	C395.718475,349.012146 394.465149,347.760406 393.877930,345.793549 
	C393.025299,342.937866 391.776886,341.215485 388.349640,341.285797 
	C385.239319,341.349609 384.396790,343.139435 383.741089,345.505219 
	C383.165680,347.581482 381.808563,348.350098 379.652557,348.300232 
	C376.965149,348.238068 374.443542,348.474487 372.762421,345.533600 
	C371.453491,343.243713 370.882477,340.057892 367.518738,339.450409 
	C365.232605,341.145844 366.380768,343.540894 365.970032,345.541138 
	C365.725525,346.731750 365.506927,347.915039 364.023804,348.023285 
	C362.178345,348.158051 361.793701,346.819977 361.786407,345.408783 
	C361.755524,339.416595 361.775024,333.423920 361.820984,327.431763 
	C361.828705,326.422882 362.164642,325.549835 363.218842,325.007294 
	C366.202850,323.471680 375.117493,324.936005 376.805542,327.494171 
	C379.548096,331.650421 377.921539,335.045898 374.627777,338.041870 
	C374.409790,338.240112 374.357422,338.620483 374.175354,339.036499 
	C375.124207,341.589996 376.449188,343.985840 378.549500,346.416260 
	C380.933289,342.783813 381.566437,338.986755 383.002441,335.095367 
M371.674408,328.579803 
	C369.645660,328.350647 367.196655,327.237732 366.313019,330.173615 
	C365.819336,331.813873 365.454376,333.952515 367.242798,335.129364 
	C368.945892,336.250061 370.844604,335.455963 372.268524,334.343628 
	C374.352386,332.715851 374.265442,330.773895 371.674408,328.579803 
M388.172333,331.696869 
	C387.841675,333.532745 386.325714,335.157898 387.119324,337.221069 
	C388.447601,337.892334 390.088013,338.188446 390.287384,336.543701 
	C390.513214,334.680206 390.667816,332.348877 388.172333,331.696869 
z"/>
<path fill="#000000" opacity="1.000000" stroke="none" 
	d="
M336.114807,325.109436 
	C338.208771,331.995178 337.020020,338.805084 337.244873,345.562317 
	C337.284058,346.739471 336.992157,348.045410 335.374207,347.906586 
	C333.818665,347.773041 333.752411,346.412476 333.735077,345.271942 
	C333.679565,341.619476 333.714478,337.965637 333.146149,334.126587 
	C332.161713,336.812347 331.215057,339.512817 330.178070,342.178131 
	C329.596802,343.672089 329.429169,345.807404 327.422943,345.930450 
	C325.059021,346.075439 324.819794,343.703735 324.114380,342.123199 
	C323.245636,340.176727 322.606720,338.127625 321.090881,336.164520 
	C321.090881,339.030396 321.152222,341.898163 321.065460,344.761414 
	C321.020874,346.231812 320.989624,348.022858 318.850952,347.962036 
	C317.086487,347.911865 316.886688,346.381226 316.881805,345.037476 
	C316.861298,339.387695 316.877747,333.737213 316.958649,328.088104 
	C316.980499,326.563171 317.267822,325.043579 319.269714,324.819763 
	C321.048981,324.620789 322.058228,325.500153 322.634827,327.098633 
	C323.980408,330.828918 325.356293,334.548309 327.164551,339.486359 
	C328.715454,335.288666 329.830658,332.122253 331.057983,328.999878 
	C331.891174,326.880188 332.434296,324.308807 336.114807,325.109436 
z"/>
<path fill="#000000" opacity="1.000000" stroke="none" 
	d="
M286.929077,371.500366 
	C287.754120,372.235962 287.826782,371.541779 287.974976,371.164246 
	C291.093323,363.219696 293.279938,362.156830 302.074005,364.373047 
	C302.128021,367.610809 297.900665,365.154480 297.501526,368.121704 
	C297.324646,370.465363 300.958282,368.777893 301.188599,370.900635 
	C300.977386,373.228119 298.086304,372.001007 297.495575,373.915680 
	C297.486237,377.000275 301.645325,374.683228 302.073059,377.260681 
	C295.968384,380.074829 293.827606,378.886719 293.730743,372.611511 
	C293.700623,370.660675 293.726044,368.708954 293.726044,365.784729 
	C290.295685,369.961456 291.222260,375.220703 287.472137,378.284729 
	C284.401154,376.348938 284.364777,373.124481 283.580414,370.398010 
	C282.248871,365.769501 279.487732,365.526733 275.795441,367.041443 
	C275.467957,370.306976 278.560089,369.077362 279.560425,370.500305 
	C279.395233,372.883423 275.542847,371.499786 275.709045,374.438782 
	C276.274231,376.807892 279.502533,374.926788 280.413940,376.988129 
	C275.405273,379.976288 272.814850,378.711090 272.709381,373.209045 
	C272.696594,372.543457 272.706177,371.877380 272.705536,371.211548 
	C272.698395,363.880829 275.690399,361.614227 282.795959,363.817200 
	C286.396698,364.933533 285.289886,368.885254 286.929077,371.500366 
z"/>
<path fill="#000000" opacity="1.000000" stroke="none" 
	d="
M138.835602,330.290924 
	C142.607803,324.846344 147.457352,323.234558 152.238129,325.519836 
	C156.922012,327.758820 159.397903,334.238525 157.821487,340.132202 
	C156.222519,346.110199 152.403015,348.889069 146.585785,348.306702 
	C141.771088,347.824677 138.279343,344.021698 137.763611,338.461090 
	C137.519608,335.830353 137.411652,333.150146 138.835602,330.290924 
M152.541397,341.818176 
	C154.234543,339.084351 154.096146,336.047394 153.453125,333.167877 
	C152.666779,329.646515 150.205246,327.740540 146.492371,328.522766 
	C143.184753,329.219604 142.432571,332.166107 141.951813,334.956207 
	C141.357635,338.404663 142.090622,341.657623 145.102890,343.746002 
	C147.659943,345.518799 150.120300,344.770325 152.541397,341.818176 
z"/>
<path fill="#000000" opacity="1.000000" stroke="none" 
	d="
M176.529510,374.171204 
	C172.304214,372.603363 176.091476,378.185791 172.002335,377.218079 
	C171.099609,373.428467 171.768524,368.949768 171.698547,364.261810 
	C175.860703,363.192078 179.483871,362.827240 181.935364,367.260956 
	C184.905640,364.449432 187.862564,362.148773 191.452164,364.560547 
	C194.826309,366.827515 194.799072,370.504700 193.882324,374.041656 
	C193.197815,376.682556 191.437500,378.358154 188.489319,378.337128 
	C183.311096,378.300201 182.871872,374.059357 181.822403,370.366302 
	C179.899384,372.035553 179.899384,372.035553 180.792664,377.817566 
	C177.905807,378.479126 177.944824,375.660187 176.529510,374.171204 
M186.129807,367.911377 
	C185.037949,369.570343 185.032043,371.411499 185.629395,373.155975 
	C186.208801,374.848083 187.550598,376.284882 189.381348,375.092224 
	C191.513153,373.703461 192.053162,371.322998 191.169357,368.931122 
	C190.352646,366.720886 188.859467,365.685364 186.129807,367.911377 
z"/>
<path fill="#000000" opacity="1.000000" stroke="none" 
	d="
M311.905853,348.070435 
	C310.397675,347.120026 310.000275,345.848785 309.670502,344.561646 
	C309.014526,342.001465 307.251190,341.339813 304.806824,341.335785 
	C302.471252,341.331940 301.079468,342.205505 300.403168,344.458496 
	C299.787323,346.510040 299.215759,348.795593 295.572723,347.846130 
	C296.066986,342.387878 298.521454,337.483185 300.293427,332.483063 
	C301.274872,329.713745 300.644958,324.777161 305.218719,325.011230 
	C309.145935,325.212219 308.605194,329.737885 309.709045,332.460724 
	C311.323486,336.443115 312.558044,340.582092 313.888397,344.675842 
	C314.403870,346.262054 315.117157,348.083588 311.905853,348.070435 
M305.774200,332.303284 
	C305.724152,332.147766 305.690704,331.984070 305.619354,331.839050 
	C305.548645,331.695251 305.365784,331.449249 305.357849,331.454132 
	C303.365112,332.670563 302.778412,334.806854 303.229889,336.682861 
	C303.673767,338.527283 305.420685,337.976410 307.067596,337.059357 
	C306.691742,335.647491 306.321411,334.256348 305.774200,332.303284 
z"/>
<path fill="#000000" opacity="1.000000" stroke="none" 
	d="
M342.992432,338.100220 
	C344.395599,334.124603 345.631165,330.506653 346.944824,326.917267 
	C347.438385,325.568695 348.391632,324.746613 349.974365,324.809113 
	C351.346100,324.863312 352.125916,325.602325 352.533356,326.796356 
	C354.877594,333.666199 357.200623,340.543335 359.521454,347.390228 
	C356.580139,349.067780 355.373077,347.786285 354.643066,345.587219 
	C353.897552,343.341309 353.353210,341.251038 350.119019,341.292603 
	C347.071167,341.331818 345.549622,342.504364 344.821289,345.359375 
	C344.347260,347.217682 343.373993,348.845459 340.459320,347.726257 
	C340.180542,344.455444 342.058411,341.573944 342.992432,338.100220 
M350.958252,333.751465 
	C350.423065,332.849976 350.745453,331.499298 349.413116,330.871307 
	C348.751129,333.037384 347.621826,335.037933 348.109375,337.531433 
	C350.959473,337.922363 352.111816,337.117523 350.958252,333.751465 
z"/>
<path fill="#000000" opacity="1.000000" stroke="none" 
	d="
M184.235596,324.713562 
	C188.067627,324.983398 191.584854,323.889404 195.012817,325.636719 
	C194.457199,328.716217 192.158279,327.995544 190.373199,328.250153 
	C188.431595,328.527008 185.627823,327.336395 185.393021,330.765778 
	C185.157394,334.207123 187.855515,333.586884 189.916183,333.773224 
	C191.566376,333.922455 193.451019,333.793243 193.159439,336.403320 
	C191.840332,337.875854 190.057236,337.273346 188.477417,337.348724 
	C185.737015,337.479431 185.298492,339.169861 185.274292,341.407623 
	C185.249435,343.707489 186.303391,344.557983 188.558670,344.813873 
	C190.869537,345.076019 193.951385,343.394562 195.721481,347.552673 
	C191.106628,348.928314 186.775787,348.553955 182.479477,347.926605 
	C181.136414,347.730530 180.944946,346.246307 180.937134,345.085297 
	C180.899048,339.431274 180.905731,333.776428 180.961151,328.122498 
	C180.978867,326.313507 181.580139,324.827637 184.235596,324.713562 
z"/>
<path fill="#000000" opacity="1.000000" stroke="none" 
	d="
M236.876099,326.448059 
	C239.547745,324.003601 240.172852,325.802063 240.222580,327.841553 
	C240.327759,332.155487 240.481674,336.500641 240.092926,340.785583 
	C239.650818,345.658813 236.518875,348.254181 231.841949,348.349426 
	C226.821075,348.451660 223.481171,345.973785 222.950867,340.925110 
	C222.484848,336.488556 222.768539,331.970703 222.774658,327.488831 
	C222.776306,326.284698 223.051620,325.071106 224.595108,325.006195 
	C226.409195,324.929901 226.825348,326.327789 226.836014,327.678406 
	C226.862198,330.995697 226.479630,334.329102 226.691757,337.628326 
	C226.890671,340.721832 227.018051,344.503174 231.421036,344.518158 
	C235.580109,344.532318 236.346970,341.096100 236.574997,337.844513 
	C236.830154,334.206055 236.714340,330.541534 236.876099,326.448059 
z"/>
<path fill="#000000" opacity="1.000000" stroke="none" 
	d="
M255.464737,327.777161 
	C259.063904,323.790009 262.990631,324.013306 267.075043,325.907532 
	C268.148376,326.405365 269.097900,327.305847 268.363342,328.694519 
	C267.782715,329.792145 266.737457,329.645935 265.733124,329.326843 
	C264.786713,329.026154 263.863647,328.591705 262.894928,328.435364 
	C261.316895,328.180725 259.775177,328.516144 259.059021,330.086456 
	C258.172668,332.029938 259.857117,332.768372 261.120422,333.452362 
	C262.871399,334.400421 264.841797,334.963562 266.536591,335.991119 
	C271.065887,338.737122 271.263672,344.300903 267.034607,347.088684 
	C263.083252,349.693359 257.071014,348.525513 253.832291,344.511658 
	C254.396225,342.822601 255.561096,342.701141 256.986450,343.336212 
	C258.505981,344.013184 259.981354,344.783112 261.739624,344.636322 
	C263.320770,344.504303 264.805481,344.128510 265.331635,342.468353 
	C265.916229,340.623840 264.524078,339.743896 263.185242,339.013672 
	C262.019745,338.377930 260.776855,337.884216 259.569519,337.324860 
	C255.562271,335.468292 253.575256,332.660339 255.464737,327.777161 
z"/>
<path fill="#000000" opacity="1.000000" stroke="none" 
	d="
M171.924133,339.715759 
	C170.017654,338.699158 168.374359,337.899261 166.732132,337.097260 
	C163.862991,335.696136 161.597336,333.719849 161.913406,330.244202 
	C162.190674,327.195129 164.522522,325.545593 167.223587,324.986053 
	C170.626709,324.281097 174.081650,324.290222 176.282074,327.719818 
	C174.599030,330.677185 172.873184,328.658936 171.269363,328.511932 
	C169.484543,328.348389 167.353775,327.776093 166.624603,330.144196 
	C165.992584,332.196777 167.727310,333.084229 169.219162,333.838287 
	C170.699371,334.586456 172.287323,335.119843 173.776291,335.852570 
	C176.264252,337.076904 177.408432,339.097534 177.313004,341.905151 
	C177.215698,344.767731 175.666595,346.511292 173.222122,347.632629 
	C168.663605,349.723724 163.700195,348.184998 161.508026,343.967072 
	C163.481018,341.640045 165.075302,344.089844 166.766632,344.472107 
	C171.256683,345.486969 173.247650,343.885773 171.924133,339.715759 
z"/>
<path fill="#000000" opacity="1.000000" stroke="none" 
	d="
M214.959778,376.369080 
	C212.183548,377.195465 212.149399,377.197601 211.957901,374.125122 
	C211.750427,370.796204 213.099747,366.994080 208.820892,364.575226 
	C215.453445,363.279755 221.887466,363.527527 228.534637,364.051422 
	C227.825699,367.247345 224.383438,365.340424 223.795364,367.909302 
	C223.664062,370.237701 226.648132,369.021271 227.248886,370.655396 
	C226.966278,372.770264 223.587860,371.753906 223.648239,374.372467 
	C224.219833,376.836517 227.467148,374.858185 228.610748,377.471954 
	C226.492249,378.899506 224.088364,378.881805 221.857437,378.121429 
	C219.402573,377.284760 220.147705,374.835388 219.983398,372.927551 
	C219.800690,370.806030 220.471939,368.610748 219.425888,366.413086 
	C216.781296,365.727783 215.294861,366.555389 215.236771,369.467468 
	C215.193588,371.632019 215.128433,373.796173 214.959778,376.369080 
z"/>
<path fill="#000000" opacity="1.000000" stroke="none" 
	d="
M129.478729,348.050903 
	C126.566154,348.473816 124.065384,348.673615 122.030792,346.728760 
	C121.302338,346.032440 120.597679,345.204285 121.174225,344.124725 
	C121.738640,343.067871 122.638771,343.202362 123.727402,343.450806 
	C129.002289,344.654938 129.580322,344.168213 129.678238,338.673859 
	C129.746262,334.855194 129.720642,331.034790 129.797424,327.216400 
	C129.817932,326.195587 130.146561,325.202545 131.370850,325.011200 
	C132.250748,324.873657 132.926605,325.237183 133.441254,326.022827 
	C135.660706,329.410858 133.449203,344.870331 130.311920,347.672150 
	C130.190765,347.780304 130.026260,347.839966 129.478729,348.050903 
z"/>
<path fill="#000000" opacity="1.000000" stroke="none" 
	d="
M353.962708,374.073303 
	C351.235321,374.111969 353.204163,377.508514 350.881958,377.838654 
	C348.917389,375.776611 347.976257,366.440887 349.800171,364.674042 
	C351.707855,362.826019 354.212799,363.425171 356.393890,364.061981 
	C358.335724,364.628998 359.696136,366.663605 358.871643,368.354645 
	C357.324005,371.528870 357.642029,374.554199 358.664856,377.739746 
	C355.381500,378.292938 355.473389,375.461884 353.962708,374.073303 
z"/>
<path fill="#000000" opacity="1.000000" stroke="none" 
	d="
M287.019470,347.872467 
	C284.571167,343.319855 285.862335,338.635071 285.736328,334.072906 
	C285.638062,330.515778 285.492615,327.706635 280.836670,328.082153 
	C279.779572,328.167419 278.990814,327.423096 279.149933,325.096375 
	C284.530151,324.349701 290.064026,324.550598 295.435120,324.983643 
	C296.174988,326.940948 295.462494,328.055450 294.175537,327.992249 
	C289.157806,327.745880 289.152222,330.924683 289.302246,334.494110 
	C289.434540,337.641785 289.403229,340.802521 289.287354,343.951721 
	C289.231598,345.467194 289.862244,347.452179 287.019470,347.872467 
z"/>
<path fill="#000000" opacity="1.000000" stroke="none" 
	d="
M210.349213,333.044189 
	C210.349442,334.686584 210.348953,335.846588 210.348999,337.006561 
	C210.349228,343.927307 210.347916,343.937958 217.192810,344.814209 
	C218.714127,345.008972 220.288513,345.054260 219.992325,347.602600 
	C216.462616,349.073181 212.684280,348.296875 208.998642,348.179535 
	C206.718094,348.106934 206.708954,346.145111 206.698669,344.475220 
	C206.666000,339.172791 206.648392,333.869507 206.716293,328.567719 
	C206.734085,327.179291 206.369034,325.128876 208.520660,325.138641 
	C210.665909,325.148376 210.202118,327.196991 210.310898,328.586426 
	C210.414093,329.904449 210.343140,331.236115 210.349213,333.044189 
z"/>
<path fill="#000000" opacity="1.000000" stroke="none" 
	d="
M314.185547,375.718506 
	C313.627289,374.452118 313.108551,373.541321 313.015839,372.589050 
	C312.656799,368.901581 313.333496,365.453094 317.205902,364.013489 
	C320.114197,362.932312 322.682861,363.859283 324.321747,366.803802 
	C326.214050,370.203674 325.673553,375.150757 322.775604,377.191162 
	C319.779022,379.301086 316.887238,378.783325 314.185547,375.718506 
M316.293945,371.435181 
	C316.749939,373.733795 317.187561,376.550873 320.426697,374.612671 
	C322.396454,373.433960 322.267853,370.932068 321.633118,368.762878 
	C321.283691,367.568787 320.512115,366.583832 319.212799,366.735901 
	C316.954742,367.000183 316.586212,368.871033 316.293945,371.435181 
z"/>
<path fill="#000000" opacity="1.000000" stroke="none" 
	d="
M199.294022,373.777222 
	C199.069290,375.333466 199.585587,376.835022 197.307449,377.818390 
	C196.064026,373.226044 196.737976,368.816376 196.890167,364.297760 
	C201.819656,363.624573 200.650604,368.909729 203.407120,370.134064 
	C204.894363,368.441559 202.965851,365.402283 206.305359,363.846863 
	C207.887314,368.744232 207.106445,373.311493 206.660324,378.117218 
	C201.939758,377.544159 202.581024,372.924225 199.576233,371.253845 
	C199.453156,372.214417 199.375061,372.823914 199.294022,373.777222 
z"/>
<path fill="#000000" opacity="1.000000" stroke="none" 
	d="
M331.002899,374.132629 
	C330.038696,375.577515 330.454712,377.503052 327.822418,378.045563 
	C326.291504,373.725800 326.497009,369.350983 327.560211,365.118286 
	C328.117645,362.899231 330.623596,363.755707 332.349792,363.687286 
	C334.365417,363.607452 335.860840,364.558441 336.690796,366.404236 
	C337.557343,368.331512 336.967255,370.076965 335.472504,371.321228 
	C334.225525,372.359222 332.661957,373.016785 331.002899,374.132629 
z"/>
<path fill="#000000" opacity="1.000000" stroke="none" 
	d="
M230.676819,371.857727 
	C231.176041,368.941742 229.304291,365.111725 232.228699,364.266052 
	C235.327026,363.370087 235.539658,367.652740 237.133774,369.562256 
	C237.418777,369.903625 237.535858,370.385223 237.814590,370.982300 
	C239.419861,368.469910 237.648346,365.730774 240.932922,363.225739 
	C241.792221,368.631561 241.328979,373.244110 241.185028,378.236176 
	C236.126694,377.479248 236.798523,372.667023 233.865829,370.382324 
	C233.376266,372.972473 234.761490,375.920990 232.414352,378.148102 
	C229.918350,376.647705 230.980270,374.265015 230.676819,371.857727 
z"/>
<path fill="#000000" opacity="1.000000" stroke="none" 
	d="
M253.568665,366.817444 
	C255.143448,374.941589 252.627289,379.005219 246.935730,378.342773 
	C245.252609,378.146851 243.974503,377.615265 243.928635,375.735229 
	C243.851562,372.576141 243.853683,369.414062 243.886871,366.253906 
	C243.900452,364.962921 244.524460,363.998016 245.904892,363.822571 
	C248.813644,363.452881 251.619537,363.451385 253.568665,366.817444 
M251.030487,373.417786 
	C252.008179,370.381775 252.081818,367.733032 248.092209,366.498474 
	C246.449020,368.888611 246.828156,371.421570 247.282639,373.688507 
	C247.818802,376.362885 249.366776,375.533936 251.030487,373.417786 
z"/>
<path fill="#000000" opacity="1.000000" stroke="none" 
	d="
M262.038757,363.997253 
	C268.338104,363.721252 271.386963,366.331635 271.185516,371.301971 
	C271.007507,375.693207 267.876282,378.663910 263.859558,378.346344 
	C262.205322,378.215607 260.734436,377.784424 260.771759,375.878876 
	C260.848480,371.962524 259.699219,367.942535 262.038757,363.997253 
M267.772308,369.907410 
	C267.309265,368.123657 266.217316,365.536377 264.497864,367.216034 
	C262.348907,369.315216 262.792206,372.681335 264.500244,375.643799 
	C267.302887,374.812988 267.787689,372.873688 267.772308,369.907410 
z"/>
<path fill="#000000" opacity="1.000000" stroke="none" 
	d="
M342.343262,375.177490 
	C343.957855,376.192719 346.018463,375.084717 347.176422,377.334534 
	C344.621094,378.920807 342.029907,378.879578 339.527374,377.562500 
	C338.342529,376.938904 337.818665,366.365509 339.046875,365.056396 
	C341.387848,362.561157 344.189423,363.473450 347.029205,364.353546 
	C346.158386,367.451782 342.714081,365.152893 341.721893,367.491760 
	C341.594879,370.292206 344.496582,369.141418 345.603241,370.324005 
	C345.988861,373.100006 340.545288,371.374023 342.343262,375.177490 
z"/>
<path fill="#000000" opacity="1.000000" stroke="none" 
	d="
M249.426590,337.974121 
	C249.368607,340.943542 249.342392,343.423187 249.231659,345.899017 
	C249.185272,346.936279 248.807785,347.919800 247.551575,347.933258 
	C246.301224,347.946655 245.825851,346.979645 245.817398,345.942566 
	C245.766266,339.664398 245.761566,333.385529 245.797867,327.107239 
	C245.803818,326.078949 246.225815,325.083710 247.486450,325.084229 
	C248.716110,325.084717 249.201935,326.020020 249.234802,327.073395 
	C249.343033,330.541779 249.367569,334.012817 249.426590,337.974121 
z"/>
<path fill="#000000" opacity="1.000000" stroke="none" 
	d="
M168.057800,371.498657 
	C163.951172,371.855225 164.577118,375.623291 162.954163,379.254822 
	C160.969986,373.675812 160.975037,369.271271 162.125305,365.436829 
	C163.194809,361.871613 166.816498,364.223755 169.471466,363.749237 
	C169.291245,367.463501 164.703033,365.133606 164.717255,368.253143 
	C164.731262,370.697021 168.578934,368.463562 168.057800,371.498657 
z"/>
<path fill="#000000" opacity="1.000000" stroke="none" 
	d="
M307.411072,372.530029 
	C307.158875,376.561310 311.616364,374.910004 312.472748,377.339539 
	C306.139496,379.806732 304.493896,378.892975 304.655396,372.614319 
	C304.729675,369.727966 303.559082,366.529327 306.022034,363.490814 
	C308.495178,366.366150 306.780518,369.442841 307.411072,372.530029 
z"/>
<path fill="#000000" opacity="1.000000" stroke="none" 
	d="
M251.215652,154.222488 
	C252.647552,156.364395 252.753845,158.222351 251.097595,159.837555 
	C250.062225,160.847260 248.751251,160.909485 247.435318,160.296844 
	C246.106354,159.678101 245.311630,158.527954 245.418503,157.169846 
	C245.699203,153.602982 247.800781,152.819611 251.215652,154.222488 
z"/>
</svg>