<?xml version="1.0" standalone="no"?>
<!DOCTYPE svg PUBLIC "-//W3C//DTD SVG 20010904//EN"
 "http://www.w3.org/TR/2001/REC-SVG-20010904/DTD/svg10.dtd">
<svg version="1.0" xmlns="http://www.w3.org/2000/svg"
 width="300.000000pt" height="300.000000pt" viewBox="0 0 300.000000 300.000000"
 preserveAspectRatio="xMidYMid meet">
<metadata>
Created by potrace 1.10, written by Peter Selinger 2001-2011
</metadata>
<g transform="translate(0.000000,300.000000) scale(0.100000,-0.100000)"
fill="#000000" stroke="none">
<path d="M1460 2316 c-24 -8 -41 -22 -55 -48 l-20 -38 23 -43 c25 -48 41 -150
24 -161 -5 -3 -13 9 -16 27 -3 19 -15 43 -27 55 -11 13 -27 38 -34 56 -16 37
-68 86 -91 86 -32 0 -76 -33 -90 -66 -13 -31 -13 -39 1 -68 16 -33 34 -45 90
-62 25 -8 30 -15 32 -44 2 -29 -5 -44 -41 -85 -41 -46 -46 -49 -72 -40 -21 8
-31 20 -37 48 -11 45 -58 87 -97 87 -42 0 -90 -49 -90 -93 0 -27 8 -42 35 -66
20 -17 41 -31 48 -31 7 0 32 -16 56 -35 l44 -35 -50 0 c-28 0 -58 6 -69 15
-51 39 -130 1 -141 -67 -5 -33 -2 -41 30 -73 40 -40 68 -44 115 -15 33 20 98
25 108 8 3 -4 1 -8 -5 -8 -6 0 -26 -14 -46 -31 -19 -17 -35 -28 -35 -25 0 13
-59 -24 -74 -46 -9 -12 -16 -35 -16 -50 0 -33 44 -85 80 -93 37 -9 92 31 105
75 15 53 23 60 63 60 67 -1 119 -71 83 -113 -7 -9 -28 -19 -47 -23 -75 -14
-101 -110 -43 -158 41 -35 83 -34 120 3 16 16 29 36 29 44 0 8 12 30 28 50 15
19 32 43 38 53 21 35 17 -72 -5 -113 -24 -49 -18 -86 22 -119 39 -33 91 -28
125 11 26 30 28 64 7 105 -15 28 -23 105 -13 115 6 6 68 -79 68 -94 0 -6 14
-26 31 -46 42 -47 88 -49 130 -4 31 33 36 63 18 103 -12 25 -63 56 -93 56 -16
0 -36 29 -36 54 0 8 12 28 26 45 20 24 34 31 62 31 47 0 56 -7 71 -52 13 -40
62 -88 89 -88 27 0 82 38 91 63 19 50 -14 106 -79 133 -19 8 -37 19 -40 23 -3
5 -20 17 -37 28 l-33 20 44 1 c25 1 62 -6 88 -18 54 -24 96 -14 123 27 23 35
25 53 9 85 -27 53 -97 76 -133 44 -16 -14 -43 -19 -96 -17 l-30 1 40 28 c22
15 58 36 80 47 51 26 78 74 63 116 -13 38 -53 69 -90 69 -34 0 -88 -47 -88
-77 0 -30 -29 -63 -55 -63 -15 0 -32 11 -46 33 -13 17 -29 37 -36 42 -7 6 -15
25 -17 43 -4 35 21 62 57 62 30 0 77 54 77 89 0 44 -47 94 -88 93 -45 -1 -72
-19 -90 -60 -10 -21 -29 -53 -44 -73 -15 -19 -29 -46 -31 -60 -6 -38 -19 -28
-22 16 -2 26 5 59 21 94 28 62 30 88 8 119 -26 38 -64 52 -104 38z m74 -48
c21 -30 20 -54 -3 -77 -11 -11 -21 -35 -23 -53 -4 -44 -32 -45 -36 -2 -2 18
-12 40 -23 50 -23 21 -25 67 -3 88 23 24 70 20 88 -6z m-228 -83 c9 -14 14
-31 11 -39 -3 -8 9 -27 29 -44 32 -29 34 -34 34 -96 l0 -66 44 0 45 0 3 43 c4
58 32 59 36 1 3 -41 4 -42 43 -46 l39 -4 0 64 c0 60 2 66 35 99 19 19 35 44
35 56 0 53 74 78 104 35 22 -30 20 -54 -5 -79 -15 -15 -29 -20 -49 -16 -44 9
-77 -34 -78 -100 -1 -38 3 -53 12 -53 26 0 60 -37 61 -66 2 -28 4 -29 52 -32
42 -2 55 1 81 23 26 21 30 31 26 55 -5 20 0 34 15 49 25 25 49 27 79 5 42 -29
18 -104 -34 -104 -12 0 -38 -16 -57 -35 -33 -33 -39 -35 -99 -35 l-63 0 0 -40
0 -40 117 0 c105 0 120 2 138 20 55 55 135 -24 83 -82 -21 -24 -65 -23 -88 2
-17 19 -29 20 -133 18 l-114 -3 -2 -42 -2 -43 69 0 c65 0 71 -2 99 -32 17 -18
37 -32 45 -30 27 6 63 -27 63 -58 0 -37 -23 -60 -60 -60 -33 0 -64 36 -58 67
1 11 -5 31 -15 46 -16 25 -23 27 -82 27 -55 0 -64 -3 -70 -20 -4 -12 -18 -23
-36 -27 -28 -5 -28 -6 -25 -65 2 -50 7 -64 27 -79 13 -10 39 -19 56 -19 67 0
84 -92 21 -114 -38 -13 -78 14 -78 54 0 20 -8 35 -23 45 -33 21 -47 57 -47
120 l0 55 -40 0 -40 0 0 -116 c0 -101 3 -119 20 -141 26 -33 25 -51 -2 -80
-25 -27 -45 -29 -76 -7 -28 20 -29 68 -2 91 18 16 20 30 20 135 l0 118 -45 0
-45 0 0 -69 c0 -66 -2 -71 -32 -96 -23 -19 -32 -35 -30 -51 4 -26 -29 -64 -56
-64 -30 0 -62 29 -62 57 0 36 27 63 63 63 18 0 41 9 54 22 19 18 23 32 23 80
0 51 -2 58 -19 58 -11 0 -28 11 -39 25 -17 21 -28 25 -73 25 -65 0 -99 -26
-99 -76 0 -40 -22 -64 -60 -64 -30 0 -60 30 -60 60 0 26 39 62 65 58 15 -2 31
7 50 30 25 30 30 32 96 32 l69 0 0 45 0 45 -118 0 c-106 0 -119 -2 -135 -21
-26 -29 -77 -23 -96 13 -14 25 -14 29 5 55 27 36 50 40 85 14 25 -18 42 -21
144 -21 l115 0 0 40 0 40 -66 0 c-63 0 -68 2 -98 34 -19 21 -43 36 -61 38 -20
2 -34 12 -45 30 -17 32 -8 54 32 77 37 21 78 -6 78 -52 1 -56 29 -80 99 -85
61 -4 61 -4 61 22 0 39 15 63 45 70 23 6 25 11 25 64 0 53 -3 60 -29 80 -17
12 -37 19 -46 16 -26 -10 -65 23 -65 56 0 59 74 84 106 35z m202 -122 c-2 -10
-10 -18 -18 -18 -8 0 -16 8 -18 18 -2 12 3 17 18 17 15 0 20 -5 18 -17z"/>
<path d="M1472 2233 c4 -21 33 -25 33 -3 0 8 -8 16 -18 18 -14 3 -18 -1 -15
-15z"/>
<path d="M1242 2153 c2 -10 10 -18 18 -18 22 0 18 29 -3 33 -14 3 -18 -1 -15
-15z"/>
<path d="M1702 2153 c4 -21 33 -25 33 -3 0 8 -8 16 -18 18 -14 3 -18 -1 -15
-15z"/>
<path d="M1035 1941 c-8 -15 3 -31 21 -31 9 0 14 7 12 17 -4 20 -24 28 -33 14z"/>
<path d="M1905 1941 c-8 -15 3 -31 21 -31 9 0 14 7 12 17 -4 20 -24 28 -33 14z"/>
<path d="M1312 1718 l3 -173 173 -3 172 -2 0 175 0 175 -175 0 -175 0 2 -172z
m307 123 c12 -23 8 -238 -5 -251 -7 -7 -55 -10 -135 -8 l-124 3 -3 124 c-2 84
1 128 9 138 18 21 247 16 258 -6z"/>
<path d="M956 1705 c-3 -9 1 -18 10 -22 19 -7 28 2 21 22 -8 19 -23 19 -31 0z"/>
<path d="M1985 1711 c-8 -15 3 -31 21 -31 9 0 14 7 12 17 -4 20 -24 28 -33 14z"/>
<path d="M1036 1475 c-3 -9 1 -18 10 -22 19 -7 28 2 21 22 -8 19 -23 19 -31 0z"/>
<path d="M1905 1481 c-8 -15 3 -31 21 -31 9 0 14 7 12 17 -4 20 -24 28 -33 14z"/>
<path d="M1242 1283 c4 -21 33 -25 33 -3 0 8 -8 16 -18 18 -14 3 -18 -1 -15
-15z"/>
<path d="M1702 1283 c4 -21 33 -25 33 -3 0 8 -8 16 -18 18 -14 3 -18 -1 -15
-15z"/>
<path d="M1470 1206 c0 -8 4 -17 9 -20 11 -7 33 18 24 27 -12 12 -33 7 -33 -7z"/>
<path d="M847 1079 c-10 -6 -31 -8 -46 -4 -23 5 -32 1 -45 -17 -9 -12 -16 -33
-16 -46 0 -12 -9 -32 -20 -44 -25 -27 -25 -40 0 -63 14 -13 27 -15 47 -10 15
3 38 6 51 5 43 -2 97 -3 117 -2 11 1 49 -1 85 -3 124 -9 144 -7 161 14 16 19
16 19 35 0 11 -10 31 -19 44 -19 118 -1 154 2 171 11 11 5 25 7 31 3 7 -4 40
-9 75 -11 52 -3 66 0 83 17 22 22 26 51 10 80 -10 19 -4 50 11 50 13 0 30 -38
35 -78 6 -50 26 -68 71 -66 21 0 46 5 56 9 9 4 25 4 35 0 28 -12 215 -13 234
-2 12 8 24 7 43 -1 33 -15 68 -15 83 0 9 9 15 9 24 0 15 -15 70 -16 86 0 9 9
18 9 38 -1 24 -10 30 -9 47 7 18 19 18 22 2 77 -9 31 -27 68 -41 82 -23 23
-26 24 -49 9 -21 -14 -27 -14 -52 -1 -35 19 -77 19 -92 1 -9 -11 -18 -12 -42
-3 -22 9 -34 9 -49 -1 -17 -10 -24 -10 -43 3 -20 13 -25 13 -45 -1 -19 -13
-24 -13 -45 1 -20 13 -26 13 -43 1 -13 -10 -24 -11 -38 -4 -10 6 -34 8 -52 5
-19 -3 -36 -1 -39 4 -11 17 -80 10 -103 -11 -22 -21 -42 -26 -42 -11 0 18 -55
32 -84 21 -18 -7 -33 -7 -46 0 -13 7 -21 7 -25 0 -4 -6 -16 -8 -26 -5 -11 4
-27 1 -35 -6 -11 -9 -20 -9 -42 0 -24 11 -29 10 -47 -11 l-21 -24 -17 23 c-10
13 -24 23 -32 23 -24 0 -45 -42 -45 -93 0 -35 -4 -47 -12 -44 -18 5 -18 68 -1
88 12 15 11 19 -14 39 -21 17 -36 20 -63 16 -36 -7 -53 -7 -103 -6 -16 1 -35
-4 -43 -11 -10 -8 -18 -8 -27 -1 -19 16 -70 22 -90 11z m-49 -80 c-5 -69 -26
-96 -59 -78 -28 14 -23 30 6 23 25 -6 25 -5 25 55 0 50 3 61 16 61 14 0 16
-10 12 -61z m122 41 c24 -24 27 -82 4 -104 -23 -24 -70 -20 -88 6 -33 47 -6
118 44 118 11 0 29 -9 40 -20z m114 14 c25 -10 19 -23 -10 -21 -40 3 -39 -18
1 -41 55 -33 39 -77 -26 -70 -44 4 -50 26 -7 24 43 -1 48 14 12 35 -58 32 -32
97 30 73z m136 -4 c0 -5 -16 -10 -35 -10 -28 0 -35 -4 -35 -20 0 -16 7 -20 30
-20 17 0 30 -4 30 -10 0 -5 -14 -10 -31 -10 -26 0 -30 -3 -27 -22 2 -19 8 -22
36 -20 25 3 32 0 32 -13 0 -13 -6 -16 -22 -11 -13 3 -33 6 -45 6 -22 0 -23 4
-23 70 l0 70 45 0 c25 0 45 -4 45 -10z m90 -53 c0 -59 2 -63 23 -62 12 0 23
-4 25 -10 1 -5 -2 -10 -8 -9 -5 1 -23 2 -40 3 l-30 1 0 70 c0 56 3 70 15 70
12 0 15 -14 15 -63z m90 19 c0 -60 8 -76 36 -76 23 0 24 3 24 60 0 49 3 60 16
60 14 0 16 -10 12 -61 -3 -38 -10 -64 -19 -70 -25 -16 -68 -10 -79 10 -13 25
-13 121 0 121 6 0 10 -20 10 -44z m140 -31 c0 -43 -4 -75 -10 -75 -6 0 -10 32
-10 75 0 43 4 75 10 75 6 0 10 -32 10 -75z m104 69 c27 -11 17 -24 -15 -22
-42 4 -47 -16 -9 -32 39 -16 53 -41 37 -64 -15 -20 -78 -19 -84 1 -3 8 6 10
31 6 46 -7 50 19 6 37 -66 27 -33 100 34 74z m176 -4 c0 -5 -9 -10 -20 -10
-18 0 -20 -7 -20 -65 0 -37 -4 -65 -10 -65 -6 0 -10 28 -10 65 0 63 -1 65 -25
65 -14 0 -25 5 -25 10 0 6 25 10 55 10 30 0 55 -4 55 -10z m88 -58 c25 -78 26
-82 12 -82 -5 0 -12 11 -16 25 -4 18 -13 25 -30 25 -17 0 -25 -7 -30 -25 -6
-26 -24 -35 -24 -12 0 29 43 137 54 137 7 0 22 -31 34 -68z m83 13 l16 -48 18
52 c10 30 23 51 31 51 12 0 14 -14 12 -72 -2 -40 -7 -72 -13 -70 -5 1 -8 24
-7 50 l1 47 -14 -30 c-8 -16 -14 -36 -15 -43 0 -25 -23 -6 -36 29 l-12 34 -1
-42 c-1 -23 -5 -45 -11 -48 -6 -4 -10 22 -10 70 0 89 15 97 41 20z m184 -7
c28 -89 28 -88 16 -88 -6 0 -13 11 -17 25 -9 36 -51 35 -65 -2 -7 -16 -13 -23
-16 -16 -7 19 37 143 51 143 6 0 20 -28 31 -62z m116 52 c23 -13 26 -58 4 -67
-14 -5 -14 -8 0 -30 9 -13 14 -30 12 -36 -2 -7 -13 3 -23 20 -23 40 -42 42
-46 6 -6 -53 -20 -23 -20 42 1 36 1 67 1 70 1 9 52 5 72 -5z m121 -60 c14 -39
21 -73 17 -76 -5 -3 -14 6 -21 20 -15 35 -53 35 -62 1 -6 -22 -26 -36 -26 -18
0 24 46 143 56 143 6 0 23 -32 36 -70z"/>
<path d="M856 1025 c-19 -20 -21 -45 -3 -69 29 -40 79 2 61 51 -11 33 -35 40
-58 18z"/>
<path d="M1817 1016 c-11 -28 -8 -43 8 -43 16 0 18 11 6 41 -7 18 -8 18 -14 2z"/>
<path d="M2190 1015 c0 -22 4 -26 23 -23 14 2 22 10 22 23 0 13 -8 21 -22 23
-19 3 -23 -1 -23 -23z"/>
<path d="M2316 1006 c-8 -33 -6 -38 14 -26 10 6 11 14 3 31 -10 23 -10 23 -17
-5z"/>
<path d="M1261 851 c-6 -4 -74 -6 -149 -4 -159 4 -174 -1 -174 -60 0 -69 -14
-66 357 -71 110 -1 208 2 218 7 10 4 26 5 35 1 28 -12 353 -14 411 -3 41 9 55
8 61 -2 9 -14 116 -5 137 13 20 16 16 82 -6 102 -17 15 -35 17 -148 12 -70 -4
-144 -5 -163 -4 -32 1 -266 1 -300 -1 -32 -2 -246 9 -256 13 -6 2 -16 1 -23
-3z m-251 -31 c0 -5 -7 -10 -15 -10 -21 0 -19 -20 3 -20 16 -1 16 -1 0 -14
-10 -7 -18 -21 -18 -30 0 -9 -4 -16 -10 -16 -11 0 -14 83 -3 93 10 11 43 8 43
-3z m56 2 c6 -4 11 -27 11 -51 l0 -44 -18 24 -19 24 0 -22 c0 -13 -4 -23 -10
-23 -11 0 -14 83 -3 93 8 9 25 9 39 -1z m82 -4 c34 -34 -7 -108 -44 -77 -27
22 -12 89 21 89 6 0 16 -5 23 -12z m72 -23 c0 28 3 30 39 33 22 1 42 -2 46 -8
3 -5 -1 -10 -11 -10 -13 0 -15 -6 -10 -34 4 -20 2 -37 -4 -41 -6 -4 -10 9 -10
34 0 30 -4 41 -15 41 -10 0 -15 -10 -15 -34 0 -45 -15 -54 -34 -19 l-15 28 -1
-28 c0 -16 -4 -26 -10 -22 -11 7 -14 78 -3 89 4 4 15 -8 25 -26 l17 -33 1 30z
m145 25 c3 -5 -3 -10 -14 -10 -12 0 -21 -4 -21 -10 0 -5 7 -10 15 -10 8 0 15
-4 15 -10 0 -5 -7 -10 -15 -10 -8 0 -15 -4 -15 -10 0 -5 9 -10 20 -10 11 0 20
-4 20 -10 0 -5 -11 -10 -25 -10 -23 0 -25 3 -25 50 0 43 3 50 19 50 11 0 23
-4 26 -10z m52 -33 c6 -19 8 -18 14 13 6 30 6 28 7 -20 1 -58 1 -58 -35 -3
-11 16 -12 15 -7 -8 3 -15 1 -30 -5 -33 -7 -5 -11 10 -11 45 0 44 2 50 15 39
8 -6 18 -22 22 -33z m84 33 c39 -21 16 -90 -30 -90 -6 0 -11 21 -11 50 0 52 7
58 41 40z m103 -6 c9 -8 16 -24 16 -34 0 -22 -26 -50 -46 -50 -10 0 -14 13
-14 50 0 54 14 65 44 34z m105 -19 c8 -30 10 -29 25 19 12 36 17 8 6 -33 -15
-55 -27 -59 -41 -11 -9 28 -18 40 -31 40 -23 0 -24 -20 0 -20 16 -1 16 -1 0
-14 -22 -16 -23 -26 -3 -26 8 0 15 -5 15 -11 0 -6 -10 -9 -22 -7 -18 2 -24 11
-26 36 -5 50 3 63 38 60 25 -2 32 -8 39 -33z m101 25 c0 -5 -9 -10 -20 -10
-11 0 -20 -4 -20 -10 0 -5 7 -10 15 -10 8 0 15 -4 15 -10 0 -5 -7 -10 -15 -10
-8 0 -15 -4 -15 -10 0 -5 9 -10 20 -10 11 0 20 -4 20 -10 0 -5 -11 -10 -25
-10 -23 0 -25 4 -25 43 0 24 3 47 7 50 10 11 43 8 43 -3z m30 -30 c0 -29 4
-40 15 -40 8 0 15 -5 15 -11 0 -6 -10 -9 -22 -7 -20 3 -23 10 -26 51 -2 28 1
47 7 47 6 0 11 -18 11 -40z m88 28 c17 -17 15 -63 -3 -78 -13 -10 -19 -10 -35
5 -24 22 -26 48 -4 69 19 19 26 20 42 4z m66 6 c23 -9 20 -45 -5 -51 -11 -3
-18 -11 -15 -19 3 -7 1 -16 -4 -19 -6 -4 -10 15 -10 44 0 51 4 56 34 45z m81
-4 c3 -5 -3 -10 -14 -10 -12 0 -21 -4 -21 -10 0 -5 7 -10 15 -10 8 0 15 -5 15
-11 0 -6 -7 -9 -15 -5 -9 3 -15 0 -15 -9 0 -8 9 -15 20 -15 11 0 20 -4 20 -10
0 -5 -11 -10 -25 -10 -23 0 -25 3 -25 50 0 43 3 50 19 50 11 0 23 -4 26 -10z
m69 -13 c8 -13 8 -19 -1 -25 -8 -5 -9 -13 -3 -22 12 -19 12 -30 1 -30 -5 0
-13 9 -16 20 -3 11 -10 20 -15 20 -5 0 -7 -6 -4 -14 3 -8 1 -17 -5 -21 -12 -7
-16 77 -4 89 11 11 35 3 47 -17z"/>
<path d="M1110 780 c0 -20 5 -30 15 -30 10 0 15 10 15 30 0 20 -5 30 -15 30
-10 0 -15 -10 -15 -30z"/>
<path d="M1470 780 c0 -20 5 -30 15 -30 10 0 15 10 15 30 0 20 -5 30 -15 30
-10 0 -15 -10 -15 -30z"/>
<path d="M1570 780 c0 -20 5 -30 15 -30 10 0 15 10 15 30 0 20 -5 30 -15 30
-10 0 -15 -10 -15 -30z"/>
<path d="M1894 796 c-8 -22 3 -49 19 -43 6 2 12 14 12 27 0 27 -22 39 -31 16z"/>
</g>
</svg>
