<?xml version="1.0" standalone="no"?>
<!DOCTYPE svg PUBLIC "-//W3C//DTD SVG 20010904//EN"
 "http://www.w3.org/TR/2001/REC-SVG-20010904/DTD/svg10.dtd">
<svg version="1.0" xmlns="http://www.w3.org/2000/svg"
 width="443.000000pt" height="356.000000pt" viewBox="0 0 443.000000 356.000000"
 preserveAspectRatio="xMidYMid meet">

<g transform="translate(0.000000,356.000000) scale(0.100000,-0.100000)"
fill="#000000" stroke="none">
<path d="M0 1780 l0 -1780 2215 0 2215 0 0 1780 0 1780 -2215 0 -2215 0 0
-1780z m2264 948 c59 -44 85 -69 86 -84 1 -66 12 -83 105 -159 l92 -76 92
-342 c50 -188 92 -345 91 -349 0 -5 -70 -8 -155 -8 -152 0 -155 0 -159 23 -3
12 -23 208 -45 436 -22 227 -43 416 -46 419 -3 3 -10 1 -16 -5 -8 -8 -3 -125
20 -425 17 -227 31 -421 31 -430 0 -12 -8 -18 -24 -18 -22 0 -23 3 -29 98 -4
53 -12 234 -18 402 -6 168 -13 311 -15 319 -3 11 -7 11 -19 1 -13 -11 -15 -58
-10 -359 3 -190 8 -372 10 -403 5 -58 5 -58 -23 -58 l-28 0 4 388 c4 373 3
386 -14 370 -16 -16 -19 -52 -30 -340 -7 -178 -13 -344 -13 -370 l-1 -48 -66
0 -67 0 6 43 c3 23 29 258 57 522 28 264 56 491 61 503 12 30 19 28 123 -50z
m-235 -473 c-38 -275 -71 -510 -74 -522 -4 -18 -12 -23 -35 -23 -17 0 -30 2
-30 6 0 3 41 233 90 511 78 435 102 545 115 531 2 -2 -28 -228 -66 -503z m-99
-23 c-54 -260 -101 -484 -104 -497 -5 -20 -13 -25 -36 -25 -17 0 -30 2 -30 5
0 3 54 224 120 492 101 410 132 516 146 500 1 -1 -42 -215 -96 -475z m-700
-791 c0 -74 -14 -101 -50 -101 -22 0 -46 35 -31 45 5 3 12 1 16 -5 3 -5 13
-10 21 -10 11 0 14 16 14 70 0 56 3 70 15 70 12 0 15 -14 15 -69z m138 57 c7
-7 12 -39 12 -73 0 -63 -11 -85 -41 -85 -32 0 -49 29 -49 81 0 28 5 59 10 70
12 21 50 25 68 7z m150 0 c21 -21 13 -30 -18 -23 -39 9 -39 -7 0 -42 22 -19
30 -35 28 -52 -4 -31 -32 -50 -55 -35 -26 16 -29 37 -4 29 40 -12 42 6 6 46
-34 38 -35 46 -12 77 12 15 39 16 55 0z m152 -3 c0 -9 -9 -15 -25 -15 -18 0
-25 -5 -25 -20 0 -11 7 -20 15 -20 8 0 15 -7 15 -15 0 -8 -7 -15 -15 -15 -24
0 -18 -38 7 -42 12 -2 23 -9 26 -16 3 -10 -6 -12 -34 -10 l-39 3 -3 60 c-5 90
2 105 43 105 24 0 35 -5 35 -15z m208 -57 c2 -56 6 -67 22 -71 33 -9 22 -27
-15 -27 l-35 0 0 86 c0 64 3 85 13 82 7 -3 13 -29 15 -70z m132 2 c0 -63 2
-70 20 -70 18 0 20 7 20 70 0 40 4 70 10 70 15 0 13 -143 -2 -158 -17 -17 -38
-15 -60 5 -24 22 -27 153 -3 153 12 0 15 -14 15 -70z m150 -16 c0 -64 -3 -85
-12 -82 -8 3 -14 29 -16 73 -3 72 1 95 18 95 6 0 10 -34 10 -86z m138 74 c20
-20 14 -28 -18 -21 -38 7 -38 -6 0 -42 34 -33 37 -70 8 -89 -22 -13 -51 2 -57
30 -3 16 -1 17 13 5 9 -7 23 -10 32 -7 13 5 10 13 -20 47 -35 38 -36 46 -13
77 12 15 39 16 55 0z m268 0 c4 -6 2 -14 -4 -16 -8 -2 -12 -29 -12 -73 0 -55
-3 -69 -15 -69 -12 0 -15 14 -15 70 0 56 -3 70 -15 70 -16 0 -20 12 -8 23 11
12 61 8 69 -5z m143 -71 c14 -75 9 -109 -10 -74 -12 21 -35 22 -43 2 -3 -8
-11 -15 -17 -15 -11 0 -10 17 13 123 7 36 14 47 26 45 13 -2 21 -24 31 -81z
m112 56 c21 -58 22 -59 34 -19 21 71 35 56 35 -38 0 -51 -4 -86 -10 -86 -5 0
-10 8 -10 18 0 15 -6 18 -30 14 -17 -2 -30 -10 -30 -18 0 -8 -4 -14 -10 -14
-6 0 -10 35 -10 85 0 87 12 109 31 58z m203 10 c12 -43 27 -146 21 -152 -4 -3
-12 2 -19 12 -17 22 -32 22 -45 0 -18 -33 -23 -4 -11 64 6 37 13 74 15 81 6
18 33 15 39 -5z m163 -5 c16 -13 12 -140 -4 -146 -9 -2 -13 7 -13 27 0 21 -5
31 -15 31 -10 0 -15 -10 -15 -30 0 -16 -4 -30 -10 -30 -11 0 -14 153 -3 163 7
8 42 -1 60 -15z m137 5 c12 -43 27 -146 21 -152 -4 -3 -12 2 -19 12 -17 22
-32 22 -45 0 -18 -33 -23 -4 -11 64 6 37 13 74 15 81 6 18 33 15 39 -5z
m-2196 -310 c2 -8 -5 -13 -17 -13 -31 0 -37 -21 -11 -40 l23 -18 -21 -11 c-15
-8 -22 -21 -22 -41 0 -17 -4 -30 -10 -30 -11 0 -14 153 -3 164 11 11 56 2 61
-11z m130 -1 c14 -14 18 -33 18 -82 -1 -68 -22 -98 -28 -38 -4 41 -21 43 -28
3 -9 -54 -25 -32 -28 39 -2 38 -1 75 2 83 8 19 43 16 64 -5z m162 -1 c5 -11
10 -42 10 -69 0 -62 -26 -92 -65 -74 -23 11 -25 17 -25 75 0 36 5 68 12 75 18
18 56 14 68 -7z m113 -18 l15 -38 1 38 c1 26 5 37 16 37 13 0 15 -14 13 -82
-3 -91 -18 -111 -40 -52 l-13 37 -5 -32 c-10 -62 -25 -36 -28 47 -2 65 0 82
11 82 8 0 21 -17 30 -37z m182 27 c3 -6 -1 -13 -9 -16 -12 -5 -16 -22 -16 -76
0 -51 -3 -69 -12 -66 -8 3 -14 29 -16 71 -2 37 -7 67 -12 67 -6 0 -10 7 -10
15 0 17 65 22 75 5z m138 -5 c-1 -5 -11 -11 -23 -13 -23 -4 -28 -42 -5 -42 8
0 15 -7 15 -15 0 -8 -7 -15 -15 -15 -25 0 -18 -38 8 -42 33 -5 22 -23 -15 -23
l-33 0 -3 83 -3 83 38 -3 c21 -2 37 -7 36 -13z m98 -15 c12 -34 29 -31 29 6 0
13 5 24 10 24 6 0 10 -35 10 -85 0 -96 -11 -107 -40 -42 l-19 42 0 -42 c-1
-24 -5 -43 -11 -43 -6 0 -10 35 -10 85 0 89 12 110 31 55z m180 20 c16 -9 19
-22 19 -74 0 -71 -12 -89 -57 -84 -27 3 -28 5 -31 72 -2 38 -1 75 2 83 6 16
40 17 67 3z m279 -10 c25 -25 27 -95 4 -128 -12 -17 -24 -22 -47 -20 l-32 3
-3 69 c-2 38 -1 75 2 83 8 20 53 16 76 -7z m150 5 c0 -9 -9 -15 -25 -15 -31 0
-33 -22 -2 -43 l22 -16 -22 -7 c-33 -9 -31 -44 2 -44 16 0 25 -6 25 -15 0 -10
-11 -15 -35 -15 l-35 0 0 85 0 85 35 0 c24 0 35 -5 35 -15z m95 -22 l8 -38 10
38 c5 20 15 37 22 37 10 0 9 -15 -1 -75 -21 -120 -36 -128 -53 -27 -7 37 -14
75 -17 85 -3 11 0 17 9 17 9 0 18 -15 22 -37z m185 22 c0 -8 -9 -15 -20 -15
-13 0 -20 -7 -20 -20 0 -11 7 -20 15 -20 8 0 15 -7 15 -15 0 -8 -7 -15 -15
-15 -25 0 -18 -38 8 -42 33 -5 22 -23 -15 -23 l-33 0 -3 83 -3 82 36 0 c24 0
35 -4 35 -15z m90 -54 c0 -65 2 -70 23 -73 33 -5 27 -23 -10 -26 l-33 -3 0 85
c0 51 4 86 10 86 6 0 10 -30 10 -69z m188 57 c7 -7 12 -39 12 -75 0 -58 -2
-64 -25 -75 -39 -18 -65 12 -65 74 0 27 5 58 10 69 12 21 50 25 68 7z m142 -6
c29 -24 21 -68 -15 -82 -19 -7 -25 -17 -25 -41 0 -20 -4 -29 -12 -27 -14 5
-23 106 -13 145 7 28 34 30 65 5z m148 6 c-3 -7 -14 -14 -26 -16 -25 -4 -31
-42 -7 -42 8 0 15 -7 15 -15 0 -8 -7 -15 -15 -15 -25 0 -18 -38 8 -42 33 -5
27 -23 -10 -26 l-33 -3 0 85 0 86 36 0 c24 0 34 -4 32 -12z m130 -6 c20 -20
25 -143 5 -149 -7 -3 -13 9 -15 29 -4 41 -21 43 -28 3 -9 -54 -25 -32 -28 39
-2 38 -1 75 2 83 7 19 43 16 64 -5z"/>
<path d="M1320 1425 c0 -48 3 -56 18 -53 13 3 17 14 17 53 0 39 -4 50 -17 53
-15 3 -18 -5 -18 -53z"/>
<path d="M2670 1416 c0 -9 5 -16 10 -16 6 0 10 4 10 9 0 6 -4 13 -10 16 -5 3
-10 -1 -10 -9z"/>
<path d="M3001 1414 c0 -11 3 -14 6 -6 3 7 2 16 -1 19 -3 4 -6 -2 -5 -13z"/>
<path d="M3140 1455 c0 -16 6 -25 15 -25 9 0 15 9 15 25 0 16 -6 25 -15 25 -9
0 -15 -9 -15 -25z"/>
<path d="M3301 1414 c0 -11 3 -14 6 -6 3 7 2 16 -1 19 -3 4 -6 -2 -5 -13z"/>
<path d="M1220 1144 c0 -31 23 -28 28 4 2 15 -2 22 -12 22 -11 0 -16 -9 -16
-26z"/>
<path d="M1364 1156 c-3 -8 -4 -31 -2 -52 2 -27 8 -40 21 -42 14 -3 17 5 17
52 0 44 -3 56 -15 56 -9 0 -18 -6 -21 -14z"/>
<path d="M2090 1115 c0 -48 3 -56 18 -53 13 3 17 14 17 53 0 39 -4 50 -17 53
-15 3 -18 -5 -18 -53z"/>
<path d="M2360 1115 c0 -48 3 -56 18 -53 13 3 17 14 17 53 0 39 -4 50 -17 53
-15 3 -18 -5 -18 -53z"/>
<path d="M3070 1115 c0 -48 3 -56 18 -53 13 3 17 14 17 53 0 39 -4 50 -17 53
-15 3 -18 -5 -18 -53z"/>
<path d="M3220 1144 c0 -31 23 -28 28 4 2 15 -2 22 -12 22 -11 0 -16 -9 -16
-26z"/>
<path d="M3500 1144 c0 -31 23 -28 28 4 2 15 -2 22 -12 22 -11 0 -16 -9 -16
-26z"/>
</g>
</svg>
